<?xml version="1.0" encoding="UTF-8" standalone="no"?>
<!-- Created with Inkscape (http://www.inkscape.org/) -->

<svg
   width="64.674004"
   height="64.674004"
   id="svg2"
   version="1.0"
   xmlns="http://www.w3.org/2000/svg"
   xmlns:svg="http://www.w3.org/2000/svg"
   xmlns:rdf="http://www.w3.org/1999/02/22-rdf-syntax-ns#"
   xmlns:cc="http://creativecommons.org/ns#"
   xmlns:dc="http://purl.org/dc/elements/1.1/">
  <defs
     id="defs4" />
  <metadata
     id="metadata7">
    <rdf:RDF>
      <cc:Work
         rdf:about="">
        <dc:format>image/svg+xml</dc:format>
        <dc:type
           rdf:resource="http://purl.org/dc/dcmitype/StillImage" />
      </cc:Work>
    </rdf:RDF>
  </metadata>
  <g
     id="layer1"
     style="display:none"
     transform="translate(-13.42607,-58.396506)">
    <g
       id="g4290"
       transform="translate(-324.68272,-449.98894)">
      <path
         id="text2160"
         style="font-style:normal;font-variant:normal;font-weight:normal;font-stretch:normal;font-size:144px;line-height:100%;font-family:'Bitstream Vera Sans';text-align:start;writing-mode:lr-tb;text-anchor:start;fill:#000000;fill-opacity:1;stroke:none;stroke-width:1px;stroke-linecap:butt;stroke-linejoin:miter;stroke-opacity:1"
         d="m 359.17477,474.31662 -0.5625,0.5 v 87 0.0312 l 0.4375,0.75 6.5,-0.5 0.3125,-0.28125 v -38.09375 -32.59375 -13.5625 -2.75 l -0.5625,-0.5 z" />
      <path
         id="rect2169"
         style="color:#000000;display:inline;overflow:visible;visibility:visible;fill:#000000;fill-opacity:1;fill-rule:evenodd;stroke:none;stroke-width:1.5;stroke-linecap:butt;stroke-linejoin:miter;stroke-miterlimit:4;stroke-dasharray:none;stroke-dashoffset:0;stroke-opacity:1;marker:none;marker-start:none;marker-mid:none;marker-end:none"
         d="m 365.86227,477.56662 v 13.5625 c 1.17182,1.21884 3.9062,2.81259 8.21875,4.78125 10.68743,3.32821 16.03118,6.62508 16.03125,9.90625 -7e-5,3.93757 -1.42195,7.04694 -4.28125,9.34375 l 2.09375,2.25 h 0.28125 c 5.71868,-4.49994 8.59367,-10.15618 8.59375,-17 -8e-5,-6.46866 -5.62508,-11.34366 -16.875,-14.625 -8.10943,-2.95303 -12.79693,-5.6874 -14.0625,-8.21875 z" />
      <path
         id="path3142"
         style="font-style:normal;font-variant:normal;font-weight:normal;font-stretch:normal;font-size:144px;line-height:100%;font-family:'Bitstream Vera Sans';text-align:start;writing-mode:lr-tb;text-anchor:start;fill:#000000;fill-opacity:1;stroke:none;stroke-width:1px;stroke-linecap:butt;stroke-linejoin:miter;stroke-opacity:1"
         d="m 343.98727,557.34787 c -9.93752,1.07814 -14.90626,4.70314 -14.90625,10.84375 -1e-5,7.87501 5.68749,11.8125 17.03125,11.8125 h 4 c 10.49995,-2.10937 15.74995,-6.76562 15.75,-13.9375 v -4.21875 h -7.25 c -4.17191,-2.99998 -8.50004,-4.49998 -13,-4.5 z" />
    </g>
  </g>
  <g
     id="g6"
     transform="translate(-13.42607,-58.396506)">
    <g
       id="g5"
       transform="translate(-315.12378,-451.77465)">
      <path
         id="path3"
         style="font-style:normal;font-variant:normal;font-weight:normal;font-stretch:normal;font-size:144px;line-height:100%;font-family:'Bitstream Vera Sans';text-align:start;writing-mode:lr-tb;text-anchor:start;fill:#000000;fill-opacity:1;stroke:none;stroke-width:0.628825px;stroke-linecap:butt;stroke-linejoin:miter;stroke-opacity:1"
         d="m 359.17477,527.68964 -0.5625,0.19771 v 34.4016 0.0123 l 0.4375,0.29657 6.5,-0.19771 0.3125,-0.11121 v -15.06306 -12.88824 -5.3629 -1.0874 l -0.5625,-0.19771 z" />
      <path
         d="m 358.61981,522.80205 v 10.6971 c 0.96988,0.96133 3.23306,2.21837 6.80244,3.7711 8.84569,2.62504 13.26858,5.22537 13.26863,7.81332 -5e-5,3.10566 -1.17691,5.55811 -3.54347,7.36965 l 1.73294,1.77464 h 0.23278 c 4.73319,-3.54921 7.11275,-8.01045 7.11282,-13.40835 -7e-5,-5.10199 -4.65574,-8.94704 -13.96699,-11.53512 -6.71195,-2.32913 -10.59167,-4.4858 -11.63915,-6.48234 z"
         style="display:inline;overflow:visible;fill-rule:evenodd;stroke-width:1.21195;marker:none;marker-start:none;marker-mid:none;marker-end:none"
         id="path6" />
      <path
         id="path5"
         style="font-style:normal;font-variant:normal;font-weight:normal;font-stretch:normal;font-size:144px;line-height:100%;font-family:'Bitstream Vera Sans';text-align:start;writing-mode:lr-tb;text-anchor:start;fill:#000000;fill-opacity:1;stroke:none;stroke-width:0.72923px;stroke-linecap:butt;stroke-linejoin:miter;stroke-opacity:1"
         d="m 349.39659,558.93517 c -7.52521,0.75712 -11.2878,3.30276 -11.2878,7.61496 0,5.53018 4.30687,8.29526 12.89696,8.29526 h 3.02901 c 7.9511,-1.4813 11.92667,-4.75112 11.92672,-9.78752 v -2.9626 h -5.49008 c -3.15919,-2.10672 -6.43668,-3.16008 -9.84428,-3.1601 z" />
    </g>
    <path
       style="fill:#ffffff;fill-opacity:1;stroke:#000000;stroke-width:0.772367;stroke-opacity:1"
       d="M 43.959019,74.72336 V 58.78269 h 6.404276 v 17.500084"
       id="path9" />
    <path
       d="m 50.594241,79.120904 v -6.16271 c 0.668523,-0.553831 2.228485,-1.278025 4.688794,-2.172568 6.097169,-1.512315 9.145782,-3.010396 9.145823,-4.501333 -4.1e-5,-1.789205 -0.811223,-3.202087 -2.442453,-4.245738 l 1.194484,-1.022386 h 0.160453 c 3.262499,2.044739 4.902686,4.614901 4.902731,7.724688 -4.5e-5,2.939312 -3.209112,5.154485 -9.627182,6.645502 -4.626421,1.341832 -7.300643,2.584318 -8.02265,3.734545 z"
       style="display:inline;overflow:visible;fill:#ffffff;fill-opacity:1;fill-rule:evenodd;stroke:#000000;stroke-width:0.763726;stroke-linejoin:bevel;stroke-dasharray:none;stroke-dashoffset:0;stroke-opacity:1;marker:none;marker-start:none;marker-mid:none;marker-end:none"
       id="path6-1" />
    <rect
       style="fill:#ffffff;fill-opacity:1;stroke:#000000;stroke-width:0;stroke-linejoin:bevel;stroke-dasharray:none;stroke-dashoffset:0;stroke-opacity:1"
       id="rect11"
       width="1.2302445"
       height="3.1243072"
       x="49.943077"
       y="73.119347" />
  </g>
</svg>
